<svg
width="100"
height="100"
viewBox="0 0 100 100"
fill="none"
xmlns="http://www.w3.org/2000/svg"
>
<g clip-path="url(#clip0_779_813)">
<path
d="M80.1367 45.1172L82.3437 42.9102L75.7226 36.2891L63.5937 24.1602L56.9726 17.5391L54.7656 19.7461L50.3515 24.1602L11.4453 63.0664C9.41405 65.0976 7.92967 67.6172 7.10936 70.3711L0.195297 93.8867C-0.292984 95.5273 0.156235 97.3047 1.3867 98.5156C2.61717 99.7266 4.37498 100.176 6.01561 99.707L29.5117 92.793C32.2656 91.9726 34.7851 90.4883 36.8164 88.457L75.7226 49.5508L80.1367 45.1172ZM31.25 78.0078L29.4726 82.4414C28.6914 83.0469 27.8125 83.4961 26.875 83.7891L11.6015 88.2812L16.0937 73.0273C16.3672 72.0703 16.8359 71.1914 17.4414 70.4297L21.875 68.6523V74.9023C21.875 76.6211 23.2812 78.0273 25 78.0273H31.25V78.0078ZM70.8398 3.65234L68.0273 6.48437L63.6133 10.8984L61.3867 13.1055L68.0078 19.7266L80.1367 31.8555L86.7578 38.4766L88.9648 36.2695L93.3789 31.8555L96.2109 29.0234C101.094 24.1406 101.094 16.2305 96.2109 11.3477L88.5351 3.65234C83.6523 -1.23047 75.7422 -1.23047 70.8594 3.65234H70.8398ZM61.582 36.4648L33.457 64.5898C32.2461 65.8008 30.2539 65.8008 29.043 64.5898C27.832 63.3789 27.832 61.3867 29.043 60.1758L57.168 32.0508C58.3789 30.8398 60.3711 30.8398 61.582 32.0508C62.793 33.2617 62.793 35.2539 61.582 36.4648Z"
fill="#293A4E"
/>
</g>
<defs>
<clipPath id="clip0_779_813">
<rect width="100" height="100" fill="white" />
</clipPath>
</defs>
</svg>