<svg
width="100"
height="100"
viewBox="0 0 100 100"
fill="none"
xmlns="http://www.w3.org/2000/svg"
>
<path
    d="M96.8555 32.5391C97.4805 34.2383 96.9531 36.1328 95.6055 37.3438L87.1484 45.0391C87.3633 46.6602 87.4805 48.3203 87.4805 50C87.4805 51.6797 87.3633 53.3398 87.1484 54.9609L95.6055 62.6562C96.9531 63.8672 97.4805 65.7617 96.8555 67.4609C95.9961 69.7852 94.9609 72.0117 93.7695 74.1602L92.8515 75.7422C91.5625 77.8906 90.1172 79.9219 88.5351 81.8359C87.3828 83.2422 85.4687 83.7109 83.75 83.1641L72.8711 79.707C70.2539 81.7188 67.3633 83.3984 64.2773 84.668L61.8359 95.8203C61.4453 97.5977 60.0781 99.0039 58.2812 99.2969C55.5859 99.7461 52.8125 99.9805 49.9805 99.9805C47.1484 99.9805 44.375 99.7461 41.6797 99.2969C39.8828 99.0039 38.5156 97.5977 38.125 95.8203L35.6836 84.668C32.5976 83.3984 29.707 81.7188 27.0898 79.707L16.2305 83.1836C14.5117 83.7305 12.5976 83.2422 11.4453 81.8555C9.86327 79.9414 8.41796 77.9102 7.1289 75.7617L6.21093 74.1797C5.01952 72.0312 3.98436 69.8047 3.12499 67.4805C2.49999 65.7812 3.02733 63.8867 4.37499 62.6758L12.832 54.9805C12.6172 53.3398 12.5 51.6797 12.5 50C12.5 48.3203 12.6172 46.6602 12.832 45.0391L4.37499 37.3438C3.02733 36.1328 2.49999 34.2383 3.12499 32.5391C3.98436 30.2148 5.01952 27.9883 6.21093 25.8398L7.1289 24.2578C8.41796 22.1094 9.86327 20.0781 11.4453 18.1641C12.5976 16.7578 14.5117 16.2891 16.2305 16.8359L27.1094 20.293C29.7265 18.2812 32.6172 16.6016 35.7031 15.332L38.1445 4.17969C38.5351 2.40234 39.9023 0.996094 41.6992 0.703125C44.3945 0.234375 47.168 0 50 0C52.832 0 55.6055 0.234375 58.3008 0.683594C60.0976 0.976562 61.4648 2.38281 61.8555 4.16016L64.2969 15.3125C67.3828 16.582 70.2734 18.2617 72.8906 20.2734L83.7695 16.8164C85.4883 16.2695 87.4023 16.7578 88.5547 18.1445C90.1367 20.0586 91.582 22.0898 92.8711 24.2383L93.789 25.8203C94.9805 27.9688 96.0156 30.1953 96.875 32.5195L96.8555 32.5391ZM50 65.625C54.144 65.625 58.1183 63.9788 61.0485 61.0485C63.9788 58.1183 65.625 54.144 65.625 50C65.625 45.856 63.9788 41.8817 61.0485 38.9515C58.1183 36.0212 54.144 34.375 50 34.375C45.856 34.375 41.8817 36.0212 38.9514 38.9515C36.0212 41.8817 34.375 45.856 34.375 50C34.375 54.144 36.0212 58.1183 38.9514 61.0485C41.8817 63.9788 45.856 65.625 50 65.625Z"
    fill="#293A4E"
/>
</svg>