<svg width="35" height="35" viewBox="0 0 37 39" fill="none" xmlns="http://www.w3.org/2000/svg">
    <g clip-path="url(#clip0_609_1139)" filter="url(#filter0_d_609_1139)">
        <path d="M16.9706 7.07107C18.6585 5.38324 20.9476 4.43503 23.3346 4.43503C25.7215 4.43503 28.0107 5.38324 29.6986 7.07107C31.3864 8.7589 32.3346 11.0481 32.3346 13.435C32.3346 15.822 31.3864 18.1112 29.6986 19.799C28.0107 21.4868 25.7215 22.435 23.3346 22.435C20.9476 22.435 18.6585 21.4868 16.9706 19.799C15.2828 18.1112 14.3346 15.822 14.3346 13.435C14.3346 11.0481 15.2828 8.7589 16.9706 7.07107ZM26.163 10.6066C26.5519 10.9955 27.1883 10.9955 27.5772 10.6066C27.9661 10.2177 27.9661 9.5813 27.5772 9.19239C25.2349 6.8501 21.4342 6.8501 19.092 9.19239C18.703 9.5813 18.703 10.2177 19.092 10.6066C19.4809 10.9955 20.1173 10.9955 20.5062 10.6066C22.0662 9.04655 24.603 9.04655 26.163 10.6066ZM7.07114 26.8701L14.2704 19.6708C14.646 20.2144 15.0747 20.7315 15.5564 21.2132C16.0381 21.6949 16.5552 22.1236 17.0988 22.4993L9.89957 29.6985C9.11733 30.4807 7.85338 30.4807 7.07114 29.6985C6.2889 28.9162 6.2889 27.6523 7.07114 26.8701Z" fill="#C2C2C2"/>
    </g>
    <defs>
        <filter id="filter0_d_609_1139" x="-4" y="0" width="44.7695" height="44.7695" filterUnits="userSpaceOnUse" color-interpolation-filters="sRGB">
            <feFlood flood-opacity="0" result="BackgroundImageFix"/>
            <feColorMatrix in="SourceAlpha" type="matrix" values="0 0 0 0 0 0 0 0 0 0 0 0 0 0 0 0 0 0 127 0" result="hardAlpha"/>
            <feOffset dy="4"/>
            <feGaussianBlur stdDeviation="2"/>
            <feComposite in2="hardAlpha" operator="out"/>
            <feColorMatrix type="matrix" values="0 0 0 0 0 0 0 0 0 0 0 0 0 0 0 0 0 0 0.25 0"/>
            <feBlend mode="normal" in2="BackgroundImageFix" result="effect1_dropShadow_609_1139"/>
            <feBlend mode="normal" in="SourceGraphic" in2="effect1_dropShadow_609_1139" result="shape"/>
        </filter>
        <clipPath id="clip0_609_1139">
            <rect width="20" height="32" fill="white" transform="translate(22.6274) rotate(45)"/>
        </clipPath>
    </defs>
</svg>