<svg width="39" height="39" viewBox="0 0 39 39" fill="none" xmlns="http://www.w3.org/2000/svg">
<path d="M19.1429 19.1429C22.044 19.1429 24.8263 18.1344 26.8777 16.3395C28.9292 14.5445 30.0816 12.1099 30.0816 9.57143C30.0816 7.03293 28.9292 4.5984 26.8777 2.80341C24.8263 1.00842 22.044 0 19.1429 0C16.2417 0 13.4594 1.00842 11.408 2.80341C9.35656 4.5984 8.20408 7.03293 8.20408 9.57143C8.20408 12.1099 9.35656 14.5445 11.408 16.3395C13.4594 18.1344 16.2417 19.1429 19.1429 19.1429ZM15.2374 22.7321C6.81964 22.7321 0 28.6993 0 36.0648C0 37.2912 1.13661 38.2857 2.53814 38.2857H35.7476C37.1491 38.2857 38.2857 37.2912 38.2857 36.0648C38.2857 28.6993 31.4661 22.7321 23.0483 22.7321H15.2374Z" fill="white"/>
</svg>
