<svg width="39" height="39" viewBox="0 0 39 39" fill="none" xmlns="http://www.w3.org/2000/svg">
<path d="M6.83673 7.77679C7.3807 7.77679 7.90238 7.58771 8.28703 7.25115C8.67167 6.91459 8.88775 6.45811 8.88775 5.98214C8.88775 5.50617 8.67167 5.0497 8.28703 4.71314C7.90238 4.37658 7.3807 4.1875 6.83673 4.1875C6.29277 4.1875 5.77109 4.37658 5.38644 4.71314C5.0018 5.0497 4.78571 5.50617 4.78571 5.98214C4.78571 6.45811 5.0018 6.91459 5.38644 7.25115C5.77109 7.58771 6.29277 7.77679 6.83673 7.77679ZM13.6735 5.98214C13.6735 8.43482 11.9899 10.5435 9.57143 11.4633V18.0287C11.1781 17.2136 13.0496 16.75 15.0408 16.75H23.2449C26.2616 16.75 28.7143 14.6039 28.7143 11.9643V11.4633C26.2958 10.5435 24.6122 8.43482 24.6122 5.98214C24.6122 2.67701 27.6717 0 31.449 0C35.2263 0 38.2857 2.67701 38.2857 5.98214C38.2857 8.43482 36.6022 10.5435 34.1837 11.4633V11.9643C34.1837 17.251 29.2869 21.5357 23.2449 21.5357H15.0408C12.0241 21.5357 9.57143 23.6818 9.57143 26.3214V26.8224C11.9899 27.7422 13.6735 29.8509 13.6735 32.3036C13.6735 35.6087 10.614 38.2857 6.83673 38.2857C3.05944 38.2857 0 35.6087 0 32.3036C0 29.8509 1.68355 27.7422 4.10204 26.8224V26.3214V11.4633C1.68355 10.5435 0 8.43482 0 5.98214C0 2.67701 3.05944 0 6.83673 0C10.614 0 13.6735 2.67701 13.6735 5.98214ZM33.5 5.98214C33.5 5.50617 33.2839 5.0497 32.8993 4.71314C32.5146 4.37658 31.9929 4.1875 31.449 4.1875C30.905 4.1875 30.3833 4.37658 29.9987 4.71314C29.614 5.0497 29.398 5.50617 29.398 5.98214C29.398 6.45811 29.614 6.91459 29.9987 7.25115C30.3833 7.58771 30.905 7.77679 31.449 7.77679C31.9929 7.77679 32.5146 7.58771 32.8993 7.25115C33.2839 6.91459 33.5 6.45811 33.5 5.98214ZM6.83673 34.0982C7.3807 34.0982 7.90238 33.9091 8.28703 33.5726C8.67167 33.236 8.88775 32.7795 8.88775 32.3036C8.88775 31.8276 8.67167 31.3711 8.28703 31.0346C7.90238 30.698 7.3807 30.5089 6.83673 30.5089C6.29277 30.5089 5.77109 30.698 5.38644 31.0346C5.0018 31.3711 4.78571 31.8276 4.78571 32.3036C4.78571 32.7795 5.0018 33.236 5.38644 33.5726C5.77109 33.9091 6.29277 34.0982 6.83673 34.0982Z" fill="white"/>
</svg>
