<svg
width="150"
height="100"
viewBox="0 0 150 100"
fill="none"
xmlns="http://www.w3.org/2000/svg"
>
<path
    d="M90 18.75V62.5H15V18.75H90ZM15 6.25C6.72656 6.25 0 11.8555 0 18.75V62.5C0 69.3945 6.72656 75 15 75H42.4922L39.9844 81.25H22.5C18.3516 81.25 15 84.043 15 87.5C15 90.957 18.3516 93.75 22.5 93.75H82.5C86.6484 93.75 90 90.957 90 87.5C90 84.043 86.6484 81.25 82.5 81.25H64.9922L62.4844 75H90C98.2734 75 105 69.3945 105 62.5V18.75C105 11.8555 98.2734 6.25 90 6.25H15ZM123.75 6.25C117.539 6.25 112.5 10.4492 112.5 15.625V84.375C112.5 89.5508 117.539 93.75 123.75 93.75H138.75C144.961 93.75 150 89.5508 150 84.375V15.625C150 10.4492 144.961 6.25 138.75 6.25H123.75ZM127.5 18.75H135C137.062 18.75 138.75 20.1562 138.75 21.875C138.75 23.5938 137.062 25 135 25H127.5C125.438 25 123.75 23.5938 123.75 21.875C123.75 20.1562 125.438 18.75 127.5 18.75ZM123.75 34.375C123.75 32.6562 125.438 31.25 127.5 31.25H135C137.062 31.25 138.75 32.6562 138.75 34.375C138.75 36.0938 137.062 37.5 135 37.5H127.5C125.438 37.5 123.75 36.0938 123.75 34.375ZM131.25 65.625C133.239 65.625 135.147 66.2835 136.553 67.4556C137.96 68.6277 138.75 70.2174 138.75 71.875C138.75 73.5326 137.96 75.1223 136.553 76.2944C135.147 77.4665 133.239 78.125 131.25 78.125C129.261 78.125 127.353 77.4665 125.947 76.2944C124.54 75.1223 123.75 73.5326 123.75 71.875C123.75 70.2174 124.54 68.6277 125.947 67.4556C127.353 66.2835 129.261 65.625 131.25 65.625Z"
    fill="#293A4E"
/>
</svg>