<svg width="38" height="30" viewBox="0 0 38 30" fill="none" xmlns="http://www.w3.org/2000/svg">
    <path d="M30.7342 4.09196C30.7247 4.0734 30.7088 4.05886 30.6895 4.05094C28.4557 3.02606 26.0984 2.29523 23.6766 1.87676C23.6546 1.87267 23.6319 1.87562 23.6116 1.8852C23.5914 1.89477 23.5747 1.91047 23.5639 1.93008C23.2429 2.51267 22.9516 3.11109 22.6909 3.72305C20.0803 3.32677 17.4249 3.32677 14.8144 3.72305C14.552 3.10954 14.2559 2.51097 13.9276 1.93008C13.9163 1.9109 13.8995 1.89556 13.8794 1.88605C13.8593 1.87653 13.8368 1.8733 13.8148 1.87676C11.3928 2.29436 9.03534 3.02523 6.80185 4.051C6.78273 4.05911 6.76659 4.07295 6.75568 4.09061C2.28913 10.7608 1.06558 17.267 1.66581 23.6926C1.6675 23.7084 1.67234 23.7236 1.68004 23.7375C1.68774 23.7513 1.69815 23.7635 1.71064 23.7732C4.31146 25.6989 7.22052 27.1688 10.3137 28.1202C10.3354 28.1267 10.3587 28.1264 10.3803 28.1194C10.4019 28.1123 10.4209 28.0988 10.4345 28.0806C11.0989 27.1767 11.6875 26.2195 12.1945 25.2188C12.2015 25.205 12.2055 25.19 12.2062 25.1746C12.2069 25.1592 12.2044 25.1439 12.1987 25.1295C12.1931 25.1152 12.1845 25.1022 12.1735 25.0915C12.1624 25.0807 12.1493 25.0724 12.1348 25.0671C11.2065 24.7119 10.3079 24.2838 9.44724 23.7867C9.4316 23.7775 9.41847 23.7646 9.40901 23.7491C9.39954 23.7336 9.39403 23.7161 9.39296 23.698C9.39188 23.6799 9.39529 23.6618 9.40286 23.6453C9.41044 23.6288 9.42196 23.6145 9.4364 23.6035C9.61698 23.4682 9.79769 23.3275 9.97013 23.1853C9.98545 23.1727 10.004 23.1646 10.0237 23.162C10.0433 23.1593 10.0633 23.1622 10.0815 23.1703C15.7199 25.7436 21.8242 25.7436 27.3959 23.1703C27.4141 23.1617 27.4343 23.1584 27.4543 23.1608C27.4742 23.1632 27.4931 23.1713 27.5086 23.184C27.6811 23.3261 27.8618 23.4682 28.0437 23.6035C28.0582 23.6144 28.0699 23.6286 28.0776 23.645C28.0853 23.6615 28.0888 23.6795 28.0878 23.6976C28.0869 23.7157 28.0815 23.7333 28.0722 23.7488C28.0628 23.7644 28.0498 23.7774 28.0342 23.7867C27.1755 24.288 26.2761 24.7159 25.3454 25.0658C25.3309 25.0713 25.3178 25.0798 25.3068 25.0907C25.2959 25.1016 25.2874 25.1147 25.2818 25.1292C25.2763 25.1436 25.2739 25.159 25.2747 25.1745C25.2756 25.1899 25.2797 25.205 25.2868 25.2188C25.8022 26.2139 26.39 27.1699 27.0454 28.079C27.0587 28.0977 27.0775 28.1117 27.0992 28.119C27.1209 28.1264 27.1444 28.1267 27.1663 28.12C30.265 27.1719 33.1791 25.7018 35.7832 23.7732C35.7959 23.7639 35.8064 23.7521 35.8142 23.7384C35.8219 23.7248 35.8266 23.7096 35.828 23.694C36.5466 16.2653 34.625 9.81241 30.7342 4.09196ZM13.0366 19.7801C11.339 19.7801 9.94025 18.2223 9.94025 16.309C9.94025 14.3958 11.3119 12.8379 13.0366 12.8379C14.7748 12.8379 16.16 14.4094 16.1328 16.3089C16.1328 18.2223 14.7612 19.7801 13.0366 19.7801ZM24.4846 19.7801C22.7871 19.7801 21.3884 18.2223 21.3884 16.309C21.3884 14.3958 22.76 12.8379 24.4846 12.8379C26.2229 12.8379 27.6081 14.4094 27.5809 16.3089C27.5809 18.2223 26.2229 19.7801 24.4846 19.7801Z" fill="black"/>
</svg>