<svg width="30" height="30" viewBox="0 0 30 30" fill="none" xmlns="http://www.w3.org/2000/svg">
    <g clip-path="url(#clip0_609_1086)">
        <path d="M6.75 0C7.74456 0 8.69839 0.49386 9.40165 1.37294C10.1049 2.25201 10.5 3.4443 10.5 4.6875C10.5 5.9307 10.1049 7.12299 9.40165 8.00206C8.69839 8.88114 7.74456 9.375 6.75 9.375C5.75544 9.375 4.80161 8.88114 4.09835 8.00206C3.39509 7.12299 3 5.9307 3 4.6875C3 3.4443 3.39509 2.25201 4.09835 1.37294C4.80161 0.49386 5.75544 0 6.75 0ZM24 0C24.9946 0 25.9484 0.49386 26.6516 1.37294C27.3549 2.25201 27.75 3.4443 27.75 4.6875C27.75 5.9307 27.3549 7.12299 26.6516 8.00206C25.9484 8.88114 24.9946 9.375 24 9.375C23.0054 9.375 22.0516 8.88114 21.3484 8.00206C20.6451 7.12299 20.25 5.9307 20.25 4.6875C20.25 3.4443 20.6451 2.25201 21.3484 1.37294C22.0516 0.49386 23.0054 0 24 0ZM0 17.502C0 14.0508 2.24062 11.25 5.00156 11.25H7.00312C7.74844 11.25 8.45625 11.4551 9.09375 11.8184C9.03281 12.2402 9.00469 12.6797 9.00469 13.125C9.00469 15.3633 9.79219 17.373 11.0344 18.75C11.025 18.75 11.0156 18.75 11.0016 18.75H0.998437C0.45 18.75 0 18.1875 0 17.502ZM18.9984 18.75C18.9891 18.75 18.9797 18.75 18.9656 18.75C20.2125 17.373 20.9953 15.3633 20.9953 13.125C20.9953 12.6797 20.9625 12.2461 20.9062 11.8184C21.5438 11.4492 22.2516 11.25 22.9969 11.25H24.9984C27.7594 11.25 30 14.0508 30 17.502C30 18.1934 29.55 18.75 29.0016 18.75H18.9984ZM10.5 13.125C10.5 11.6332 10.9741 10.2024 11.818 9.14752C12.6619 8.09263 13.8065 7.5 15 7.5C16.1935 7.5 17.3381 8.09263 18.182 9.14752C19.0259 10.2024 19.5 11.6332 19.5 13.125C19.5 14.6168 19.0259 16.0476 18.182 17.1025C17.3381 18.1574 16.1935 18.75 15 18.75C13.8065 18.75 12.6619 18.1574 11.818 17.1025C10.9741 16.0476 10.5 14.6168 10.5 13.125ZM6 28.4355C6 24.123 8.79844 20.625 12.2484 20.625H17.7516C21.2016 20.625 24 24.123 24 28.4355C24 29.2969 23.4422 30 22.7484 30H7.25156C6.5625 30 6 29.3027 6 28.4355Z" fill="black"/>
    </g>
    <defs>
        <clipPath id="clip0_609_1086">
            <rect width="30" height="30" fill="white"/>
        </clipPath>
    </defs>
</svg>