<svg width="39" height="34" viewBox="0 0 39 34" fill="none" xmlns="http://www.w3.org/2000/svg">
<path d="M0 4.78571C0 2.14609 2.14609 0 4.78571 0H33.5C36.1396 0 38.2857 2.14609 38.2857 4.78571V28.7143C38.2857 31.3539 36.1396 33.5 33.5 33.5H4.78571C2.14609 33.5 0 31.3539 0 28.7143V4.78571ZM3.58929 25.125V27.5179C3.58929 28.1759 4.12768 28.7143 4.78571 28.7143H7.17857C7.83661 28.7143 8.375 28.1759 8.375 27.5179V25.125C8.375 24.467 7.83661 23.9286 7.17857 23.9286H4.78571C4.12768 23.9286 3.58929 24.467 3.58929 25.125ZM31.1071 23.9286C30.4491 23.9286 29.9107 24.467 29.9107 25.125V27.5179C29.9107 28.1759 30.4491 28.7143 31.1071 28.7143H33.5C34.158 28.7143 34.6964 28.1759 34.6964 27.5179V25.125C34.6964 24.467 34.158 23.9286 33.5 23.9286H31.1071ZM3.58929 15.5536V17.9464C3.58929 18.6045 4.12768 19.1429 4.78571 19.1429H7.17857C7.83661 19.1429 8.375 18.6045 8.375 17.9464V15.5536C8.375 14.8955 7.83661 14.3571 7.17857 14.3571H4.78571C4.12768 14.3571 3.58929 14.8955 3.58929 15.5536ZM31.1071 14.3571C30.4491 14.3571 29.9107 14.8955 29.9107 15.5536V17.9464C29.9107 18.6045 30.4491 19.1429 31.1071 19.1429H33.5C34.158 19.1429 34.6964 18.6045 34.6964 17.9464V15.5536C34.6964 14.8955 34.158 14.3571 33.5 14.3571H31.1071ZM3.58929 5.98214V8.375C3.58929 9.03304 4.12768 9.57143 4.78571 9.57143H7.17857C7.83661 9.57143 8.375 9.03304 8.375 8.375V5.98214C8.375 5.32411 7.83661 4.78571 7.17857 4.78571H4.78571C4.12768 4.78571 3.58929 5.32411 3.58929 5.98214ZM31.1071 4.78571C30.4491 4.78571 29.9107 5.32411 29.9107 5.98214V8.375C29.9107 9.03304 30.4491 9.57143 31.1071 9.57143H33.5C34.158 9.57143 34.6964 9.03304 34.6964 8.375V5.98214C34.6964 5.32411 34.158 4.78571 33.5 4.78571H31.1071ZM11.9643 7.17857V11.9643C11.9643 13.2878 13.0336 14.3571 14.3571 14.3571H23.9286C25.2521 14.3571 26.3214 13.2878 26.3214 11.9643V7.17857C26.3214 5.85502 25.2521 4.78571 23.9286 4.78571H14.3571C13.0336 4.78571 11.9643 5.85502 11.9643 7.17857ZM14.3571 19.1429C13.0336 19.1429 11.9643 20.2122 11.9643 21.5357V26.3214C11.9643 27.645 13.0336 28.7143 14.3571 28.7143H23.9286C25.2521 28.7143 26.3214 27.645 26.3214 26.3214V21.5357C26.3214 20.2122 25.2521 19.1429 23.9286 19.1429H14.3571Z" fill="white"/>
</svg>
