<svg width="20" height="23" viewBox="0 0 20 23" fill="none" xmlns="http://www.w3.org/2000/svg">
    <path d="M4.28571 0C1.91964 0 0 1.91904 0 4.28438V18.5656C0 20.931 1.91964 22.85 4.28571 22.85H17.1429H18.5714C19.3616 22.85 20 22.2118 20 21.4219C20 20.6319 19.3616 19.9937 18.5714 19.9937V17.1375C19.3616 17.1375 20 16.4993 20 15.7094V1.42813C20 0.638193 19.3616 0 18.5714 0H17.1429H4.28571ZM4.28571 17.1375H15.7143V19.9937H4.28571C3.49554 19.9937 2.85714 19.3556 2.85714 18.5656C2.85714 17.7757 3.49554 17.1375 4.28571 17.1375ZM5.71429 6.42656C5.71429 6.03383 6.03571 5.7125 6.42857 5.7125H15C15.3929 5.7125 15.7143 6.03383 15.7143 6.42656C15.7143 6.8193 15.3929 7.14062 15 7.14062H6.42857C6.03571 7.14062 5.71429 6.8193 5.71429 6.42656ZM6.42857 8.56875H15C15.3929 8.56875 15.7143 8.89008 15.7143 9.28281C15.7143 9.67555 15.3929 9.99687 15 9.99687H6.42857C6.03571 9.99687 5.71429 9.67555 5.71429 9.28281C5.71429 8.89008 6.03571 8.56875 6.42857 8.56875Z" fill="#585859"/>
</svg>
